<?xml version="1.0" encoding="utf-8" standalone="no"?>
<!DOCTYPE svg PUBLIC "-//W3C//DTD SVG 1.1//EN"
  "http://www.w3.org/Graphics/SVG/1.1/DTD/svg11.dtd">
<!-- Created with matplotlib (https://matplotlib.org/) -->
<svg height="288pt" version="1.1" viewBox="0 0 432 288" width="432pt" xmlns="http://www.w3.org/2000/svg" xmlns:xlink="http://www.w3.org/1999/xlink">
 <defs>
  <style type="text/css">
*{stroke-linecap:butt;stroke-linejoin:round;}
  </style>
 </defs>
 <g id="figure_1">
  <g id="patch_1">
   <path d="M 0 288 
L 432 288 
L 432 0 
L 0 0 
z
" style="fill:#ffffff;"/>
  </g>
  <g id="axes_1">
   <g id="patch_2">
    <path d="M 54 252 
L 388.8 252 
L 388.8 34.56 
L 54 34.56 
z
" style="fill:#ffffff;"/>
   </g>
   <g id="matplotlib.axis_1">
    <g id="xtick_1">
     <g id="line2d_1">
      <defs>
       <path d="M 0 0 
L 0 3.5 
" id="md675d7197a" style="stroke:#000000;stroke-width:0.8;"/>
      </defs>
      <g>
       <use style="stroke:#000000;stroke-width:0.8;" x="69.218182" xlink:href="#md675d7197a" y="252"/>
      </g>
     </g>
     <g id="text_1">
      <!-- 0 -->
      <defs>
       <path d="M 31.78125 66.40625 
Q 24.171875 66.40625 20.328125 58.90625 
Q 16.5 51.421875 16.5 36.375 
Q 16.5 21.390625 20.328125 13.890625 
Q 24.171875 6.390625 31.78125 6.390625 
Q 39.453125 6.390625 43.28125 13.890625 
Q 47.125 21.390625 47.125 36.375 
Q 47.125 51.421875 43.28125 58.90625 
Q 39.453125 66.40625 31.78125 66.40625 
z
M 31.78125 74.21875 
Q 44.046875 74.21875 50.515625 64.515625 
Q 56.984375 54.828125 56.984375 36.375 
Q 56.984375 17.96875 50.515625 8.265625 
Q 44.046875 -1.421875 31.78125 -1.421875 
Q 19.53125 -1.421875 13.0625 8.265625 
Q 6.59375 17.96875 6.59375 36.375 
Q 6.59375 54.828125 13.0625 64.515625 
Q 19.53125 74.21875 31.78125 74.21875 
z
" id="DejaVuSans-48"/>
      </defs>
      <g transform="translate(66.036932 266.598437)scale(0.1 -0.1)">
       <use xlink:href="#DejaVuSans-48"/>
      </g>
     </g>
    </g>
    <g id="xtick_2">
     <g id="line2d_2">
      <g>
       <use style="stroke:#000000;stroke-width:0.8;" x="107.45482" xlink:href="#md675d7197a" y="252"/>
      </g>
     </g>
     <g id="text_2">
      <!-- 25 -->
      <defs>
       <path d="M 19.1875 8.296875 
L 53.609375 8.296875 
L 53.609375 0 
L 7.328125 0 
L 7.328125 8.296875 
Q 12.9375 14.109375 22.625 23.890625 
Q 32.328125 33.6875 34.8125 36.53125 
Q 39.546875 41.84375 41.421875 45.53125 
Q 43.3125 49.21875 43.3125 52.78125 
Q 43.3125 58.59375 39.234375 62.25 
Q 35.15625 65.921875 28.609375 65.921875 
Q 23.96875 65.921875 18.8125 64.3125 
Q 13.671875 62.703125 7.8125 59.421875 
L 7.8125 69.390625 
Q 13.765625 71.78125 18.9375 73 
Q 24.125 74.21875 28.421875 74.21875 
Q 39.75 74.21875 46.484375 68.546875 
Q 53.21875 62.890625 53.21875 53.421875 
Q 53.21875 48.921875 51.53125 44.890625 
Q 49.859375 40.875 45.40625 35.40625 
Q 44.1875 33.984375 37.640625 27.21875 
Q 31.109375 20.453125 19.1875 8.296875 
z
" id="DejaVuSans-50"/>
       <path d="M 10.796875 72.90625 
L 49.515625 72.90625 
L 49.515625 64.59375 
L 19.828125 64.59375 
L 19.828125 46.734375 
Q 21.96875 47.46875 24.109375 47.828125 
Q 26.265625 48.1875 28.421875 48.1875 
Q 40.625 48.1875 47.75 41.5 
Q 54.890625 34.8125 54.890625 23.390625 
Q 54.890625 11.625 47.5625 5.09375 
Q 40.234375 -1.421875 26.90625 -1.421875 
Q 22.3125 -1.421875 17.546875 -0.640625 
Q 12.796875 0.140625 7.71875 1.703125 
L 7.71875 11.625 
Q 12.109375 9.234375 16.796875 8.0625 
Q 21.484375 6.890625 26.703125 6.890625 
Q 35.15625 6.890625 40.078125 11.328125 
Q 45.015625 15.765625 45.015625 23.390625 
Q 45.015625 31 40.078125 35.4375 
Q 35.15625 39.890625 26.703125 39.890625 
Q 22.75 39.890625 18.8125 39.015625 
Q 14.890625 38.140625 10.796875 36.28125 
z
" id="DejaVuSans-53"/>
      </defs>
      <g transform="translate(101.09232 266.598437)scale(0.1 -0.1)">
       <use xlink:href="#DejaVuSans-50"/>
       <use x="63.623047" xlink:href="#DejaVuSans-53"/>
      </g>
     </g>
    </g>
    <g id="xtick_3">
     <g id="line2d_3">
      <g>
       <use style="stroke:#000000;stroke-width:0.8;" x="145.691457" xlink:href="#md675d7197a" y="252"/>
      </g>
     </g>
     <g id="text_3">
      <!-- 50 -->
      <g transform="translate(139.328957 266.598437)scale(0.1 -0.1)">
       <use xlink:href="#DejaVuSans-53"/>
       <use x="63.623047" xlink:href="#DejaVuSans-48"/>
      </g>
     </g>
    </g>
    <g id="xtick_4">
     <g id="line2d_4">
      <g>
       <use style="stroke:#000000;stroke-width:0.8;" x="183.928095" xlink:href="#md675d7197a" y="252"/>
      </g>
     </g>
     <g id="text_4">
      <!-- 75 -->
      <defs>
       <path d="M 8.203125 72.90625 
L 55.078125 72.90625 
L 55.078125 68.703125 
L 28.609375 0 
L 18.3125 0 
L 43.21875 64.59375 
L 8.203125 64.59375 
z
" id="DejaVuSans-55"/>
      </defs>
      <g transform="translate(177.565595 266.598437)scale(0.1 -0.1)">
       <use xlink:href="#DejaVuSans-55"/>
       <use x="63.623047" xlink:href="#DejaVuSans-53"/>
      </g>
     </g>
    </g>
    <g id="xtick_5">
     <g id="line2d_5">
      <g>
       <use style="stroke:#000000;stroke-width:0.8;" x="222.164733" xlink:href="#md675d7197a" y="252"/>
      </g>
     </g>
     <g id="text_5">
      <!-- 100 -->
      <defs>
       <path d="M 12.40625 8.296875 
L 28.515625 8.296875 
L 28.515625 63.921875 
L 10.984375 60.40625 
L 10.984375 69.390625 
L 28.421875 72.90625 
L 38.28125 72.90625 
L 38.28125 8.296875 
L 54.390625 8.296875 
L 54.390625 0 
L 12.40625 0 
z
" id="DejaVuSans-49"/>
      </defs>
      <g transform="translate(212.620983 266.598437)scale(0.1 -0.1)">
       <use xlink:href="#DejaVuSans-49"/>
       <use x="63.623047" xlink:href="#DejaVuSans-48"/>
       <use x="127.246094" xlink:href="#DejaVuSans-48"/>
      </g>
     </g>
    </g>
    <g id="xtick_6">
     <g id="line2d_6">
      <g>
       <use style="stroke:#000000;stroke-width:0.8;" x="260.40137" xlink:href="#md675d7197a" y="252"/>
      </g>
     </g>
     <g id="text_6">
      <!-- 125 -->
      <g transform="translate(250.85762 266.598437)scale(0.1 -0.1)">
       <use xlink:href="#DejaVuSans-49"/>
       <use x="63.623047" xlink:href="#DejaVuSans-50"/>
       <use x="127.246094" xlink:href="#DejaVuSans-53"/>
      </g>
     </g>
    </g>
    <g id="xtick_7">
     <g id="line2d_7">
      <g>
       <use style="stroke:#000000;stroke-width:0.8;" x="298.638008" xlink:href="#md675d7197a" y="252"/>
      </g>
     </g>
     <g id="text_7">
      <!-- 150 -->
      <g transform="translate(289.094258 266.598437)scale(0.1 -0.1)">
       <use xlink:href="#DejaVuSans-49"/>
       <use x="63.623047" xlink:href="#DejaVuSans-53"/>
       <use x="127.246094" xlink:href="#DejaVuSans-48"/>
      </g>
     </g>
    </g>
    <g id="xtick_8">
     <g id="line2d_8">
      <g>
       <use style="stroke:#000000;stroke-width:0.8;" x="336.874646" xlink:href="#md675d7197a" y="252"/>
      </g>
     </g>
     <g id="text_8">
      <!-- 175 -->
      <g transform="translate(327.330896 266.598437)scale(0.1 -0.1)">
       <use xlink:href="#DejaVuSans-49"/>
       <use x="63.623047" xlink:href="#DejaVuSans-55"/>
       <use x="127.246094" xlink:href="#DejaVuSans-53"/>
      </g>
     </g>
    </g>
    <g id="xtick_9">
     <g id="line2d_9">
      <g>
       <use style="stroke:#000000;stroke-width:0.8;" x="375.111284" xlink:href="#md675d7197a" y="252"/>
      </g>
     </g>
     <g id="text_9">
      <!-- 200 -->
      <g transform="translate(365.567534 266.598437)scale(0.1 -0.1)">
       <use xlink:href="#DejaVuSans-50"/>
       <use x="63.623047" xlink:href="#DejaVuSans-48"/>
       <use x="127.246094" xlink:href="#DejaVuSans-48"/>
      </g>
     </g>
    </g>
    <g id="text_10">
     <!-- Epoch -->
     <defs>
      <path d="M 9.8125 72.90625 
L 55.90625 72.90625 
L 55.90625 64.59375 
L 19.671875 64.59375 
L 19.671875 43.015625 
L 54.390625 43.015625 
L 54.390625 34.71875 
L 19.671875 34.71875 
L 19.671875 8.296875 
L 56.78125 8.296875 
L 56.78125 0 
L 9.8125 0 
z
" id="DejaVuSans-69"/>
      <path d="M 18.109375 8.203125 
L 18.109375 -20.796875 
L 9.078125 -20.796875 
L 9.078125 54.6875 
L 18.109375 54.6875 
L 18.109375 46.390625 
Q 20.953125 51.265625 25.265625 53.625 
Q 29.59375 56 35.59375 56 
Q 45.5625 56 51.78125 48.09375 
Q 58.015625 40.1875 58.015625 27.296875 
Q 58.015625 14.40625 51.78125 6.484375 
Q 45.5625 -1.421875 35.59375 -1.421875 
Q 29.59375 -1.421875 25.265625 0.953125 
Q 20.953125 3.328125 18.109375 8.203125 
z
M 48.6875 27.296875 
Q 48.6875 37.203125 44.609375 42.84375 
Q 40.53125 48.484375 33.40625 48.484375 
Q 26.265625 48.484375 22.1875 42.84375 
Q 18.109375 37.203125 18.109375 27.296875 
Q 18.109375 17.390625 22.1875 11.75 
Q 26.265625 6.109375 33.40625 6.109375 
Q 40.53125 6.109375 44.609375 11.75 
Q 48.6875 17.390625 48.6875 27.296875 
z
" id="DejaVuSans-112"/>
      <path d="M 30.609375 48.390625 
Q 23.390625 48.390625 19.1875 42.75 
Q 14.984375 37.109375 14.984375 27.296875 
Q 14.984375 17.484375 19.15625 11.84375 
Q 23.34375 6.203125 30.609375 6.203125 
Q 37.796875 6.203125 41.984375 11.859375 
Q 46.1875 17.53125 46.1875 27.296875 
Q 46.1875 37.015625 41.984375 42.703125 
Q 37.796875 48.390625 30.609375 48.390625 
z
M 30.609375 56 
Q 42.328125 56 49.015625 48.375 
Q 55.71875 40.765625 55.71875 27.296875 
Q 55.71875 13.875 49.015625 6.21875 
Q 42.328125 -1.421875 30.609375 -1.421875 
Q 18.84375 -1.421875 12.171875 6.21875 
Q 5.515625 13.875 5.515625 27.296875 
Q 5.515625 40.765625 12.171875 48.375 
Q 18.84375 56 30.609375 56 
z
" id="DejaVuSans-111"/>
      <path d="M 48.78125 52.59375 
L 48.78125 44.1875 
Q 44.96875 46.296875 41.140625 47.34375 
Q 37.3125 48.390625 33.40625 48.390625 
Q 24.65625 48.390625 19.8125 42.84375 
Q 14.984375 37.3125 14.984375 27.296875 
Q 14.984375 17.28125 19.8125 11.734375 
Q 24.65625 6.203125 33.40625 6.203125 
Q 37.3125 6.203125 41.140625 7.25 
Q 44.96875 8.296875 48.78125 10.40625 
L 48.78125 2.09375 
Q 45.015625 0.34375 40.984375 -0.53125 
Q 36.96875 -1.421875 32.421875 -1.421875 
Q 20.0625 -1.421875 12.78125 6.34375 
Q 5.515625 14.109375 5.515625 27.296875 
Q 5.515625 40.671875 12.859375 48.328125 
Q 20.21875 56 33.015625 56 
Q 37.15625 56 41.109375 55.140625 
Q 45.0625 54.296875 48.78125 52.59375 
z
" id="DejaVuSans-99"/>
      <path d="M 54.890625 33.015625 
L 54.890625 0 
L 45.90625 0 
L 45.90625 32.71875 
Q 45.90625 40.484375 42.875 44.328125 
Q 39.84375 48.1875 33.796875 48.1875 
Q 26.515625 48.1875 22.3125 43.546875 
Q 18.109375 38.921875 18.109375 30.90625 
L 18.109375 0 
L 9.078125 0 
L 9.078125 75.984375 
L 18.109375 75.984375 
L 18.109375 46.1875 
Q 21.34375 51.125 25.703125 53.5625 
Q 30.078125 56 35.796875 56 
Q 45.21875 56 50.046875 50.171875 
Q 54.890625 44.34375 54.890625 33.015625 
z
" id="DejaVuSans-104"/>
     </defs>
     <g transform="translate(206.089063 280.276563)scale(0.1 -0.1)">
      <use xlink:href="#DejaVuSans-69"/>
      <use x="63.183594" xlink:href="#DejaVuSans-112"/>
      <use x="126.660156" xlink:href="#DejaVuSans-111"/>
      <use x="187.841797" xlink:href="#DejaVuSans-99"/>
      <use x="242.822266" xlink:href="#DejaVuSans-104"/>
     </g>
    </g>
   </g>
   <g id="matplotlib.axis_2">
    <g id="ytick_1">
     <g id="line2d_10">
      <defs>
       <path d="M 0 0 
L -3.5 0 
" id="m2be130b7df" style="stroke:#000000;stroke-width:0.8;"/>
      </defs>
      <g>
       <use style="stroke:#000000;stroke-width:0.8;" x="54" xlink:href="#m2be130b7df" y="239.425665"/>
      </g>
     </g>
     <g id="text_11">
      <!-- 5.0 -->
      <defs>
       <path d="M 10.6875 12.40625 
L 21 12.40625 
L 21 0 
L 10.6875 0 
z
" id="DejaVuSans-46"/>
      </defs>
      <g transform="translate(31.096875 243.224883)scale(0.1 -0.1)">
       <use xlink:href="#DejaVuSans-53"/>
       <use x="63.623047" xlink:href="#DejaVuSans-46"/>
       <use x="95.410156" xlink:href="#DejaVuSans-48"/>
      </g>
     </g>
    </g>
    <g id="ytick_2">
     <g id="line2d_11">
      <g>
       <use style="stroke:#000000;stroke-width:0.8;" x="54" xlink:href="#m2be130b7df" y="210.34168"/>
      </g>
     </g>
     <g id="text_12">
      <!-- 7.5 -->
      <g transform="translate(31.096875 214.140899)scale(0.1 -0.1)">
       <use xlink:href="#DejaVuSans-55"/>
       <use x="63.623047" xlink:href="#DejaVuSans-46"/>
       <use x="95.410156" xlink:href="#DejaVuSans-53"/>
      </g>
     </g>
    </g>
    <g id="ytick_3">
     <g id="line2d_12">
      <g>
       <use style="stroke:#000000;stroke-width:0.8;" x="54" xlink:href="#m2be130b7df" y="181.257696"/>
      </g>
     </g>
     <g id="text_13">
      <!-- 10.0 -->
      <g transform="translate(24.734375 185.056915)scale(0.1 -0.1)">
       <use xlink:href="#DejaVuSans-49"/>
       <use x="63.623047" xlink:href="#DejaVuSans-48"/>
       <use x="127.246094" xlink:href="#DejaVuSans-46"/>
       <use x="159.033203" xlink:href="#DejaVuSans-48"/>
      </g>
     </g>
    </g>
    <g id="ytick_4">
     <g id="line2d_13">
      <g>
       <use style="stroke:#000000;stroke-width:0.8;" x="54" xlink:href="#m2be130b7df" y="152.173712"/>
      </g>
     </g>
     <g id="text_14">
      <!-- 12.5 -->
      <g transform="translate(24.734375 155.972931)scale(0.1 -0.1)">
       <use xlink:href="#DejaVuSans-49"/>
       <use x="63.623047" xlink:href="#DejaVuSans-50"/>
       <use x="127.246094" xlink:href="#DejaVuSans-46"/>
       <use x="159.033203" xlink:href="#DejaVuSans-53"/>
      </g>
     </g>
    </g>
    <g id="ytick_5">
     <g id="line2d_14">
      <g>
       <use style="stroke:#000000;stroke-width:0.8;" x="54" xlink:href="#m2be130b7df" y="123.089728"/>
      </g>
     </g>
     <g id="text_15">
      <!-- 15.0 -->
      <g transform="translate(24.734375 126.888947)scale(0.1 -0.1)">
       <use xlink:href="#DejaVuSans-49"/>
       <use x="63.623047" xlink:href="#DejaVuSans-53"/>
       <use x="127.246094" xlink:href="#DejaVuSans-46"/>
       <use x="159.033203" xlink:href="#DejaVuSans-48"/>
      </g>
     </g>
    </g>
    <g id="ytick_6">
     <g id="line2d_15">
      <g>
       <use style="stroke:#000000;stroke-width:0.8;" x="54" xlink:href="#m2be130b7df" y="94.005744"/>
      </g>
     </g>
     <g id="text_16">
      <!-- 17.5 -->
      <g transform="translate(24.734375 97.804962)scale(0.1 -0.1)">
       <use xlink:href="#DejaVuSans-49"/>
       <use x="63.623047" xlink:href="#DejaVuSans-55"/>
       <use x="127.246094" xlink:href="#DejaVuSans-46"/>
       <use x="159.033203" xlink:href="#DejaVuSans-53"/>
      </g>
     </g>
    </g>
    <g id="ytick_7">
     <g id="line2d_16">
      <g>
       <use style="stroke:#000000;stroke-width:0.8;" x="54" xlink:href="#m2be130b7df" y="64.921759"/>
      </g>
     </g>
     <g id="text_17">
      <!-- 20.0 -->
      <g transform="translate(24.734375 68.720978)scale(0.1 -0.1)">
       <use xlink:href="#DejaVuSans-50"/>
       <use x="63.623047" xlink:href="#DejaVuSans-48"/>
       <use x="127.246094" xlink:href="#DejaVuSans-46"/>
       <use x="159.033203" xlink:href="#DejaVuSans-48"/>
      </g>
     </g>
    </g>
    <g id="ytick_8">
     <g id="line2d_17">
      <g>
       <use style="stroke:#000000;stroke-width:0.8;" x="54" xlink:href="#m2be130b7df" y="35.837775"/>
      </g>
     </g>
     <g id="text_18">
      <!-- 22.5 -->
      <g transform="translate(24.734375 39.636994)scale(0.1 -0.1)">
       <use xlink:href="#DejaVuSans-50"/>
       <use x="63.623047" xlink:href="#DejaVuSans-50"/>
       <use x="127.246094" xlink:href="#DejaVuSans-46"/>
       <use x="159.033203" xlink:href="#DejaVuSans-53"/>
      </g>
     </g>
    </g>
    <g id="text_19">
     <!-- MAE -->
     <defs>
      <path d="M 9.8125 72.90625 
L 24.515625 72.90625 
L 43.109375 23.296875 
L 61.8125 72.90625 
L 76.515625 72.90625 
L 76.515625 0 
L 66.890625 0 
L 66.890625 64.015625 
L 48.09375 14.015625 
L 38.1875 14.015625 
L 19.390625 64.015625 
L 19.390625 0 
L 9.8125 0 
z
" id="DejaVuSans-77"/>
      <path d="M 34.1875 63.1875 
L 20.796875 26.90625 
L 47.609375 26.90625 
z
M 28.609375 72.90625 
L 39.796875 72.90625 
L 67.578125 0 
L 57.328125 0 
L 50.6875 18.703125 
L 17.828125 18.703125 
L 11.1875 0 
L 0.78125 0 
z
" id="DejaVuSans-65"/>
     </defs>
     <g transform="translate(18.654688 154.17375)rotate(-90)scale(0.1 -0.1)">
      <use xlink:href="#DejaVuSans-77"/>
      <use x="86.279297" xlink:href="#DejaVuSans-65"/>
      <use x="154.6875" xlink:href="#DejaVuSans-69"/>
     </g>
    </g>
   </g>
   <g id="line2d_18">
    <path clip-path="url(#p18f1190cda)" d="M 69.218182 61.614863 
L 70.747647 71.667246 
L 73.806578 132.361901 
L 75.336044 177.738492 
L 76.865509 185.719103 
L 78.394975 203.811708 
L 79.92444 200.138188 
L 81.453906 209.54981 
L 82.983371 210.379691 
L 84.512837 214.061931 
L 86.042302 208.289468 
L 87.571768 227.135838 
L 89.101233 210.519866 
L 90.630699 209.020318 
L 92.160164 213.527945 
L 93.68963 226.763463 
L 95.219095 217.407564 
L 96.748561 211.114235 
L 98.278026 217.486281 
L 99.807492 227.889992 
L 101.336958 236.602584 
L 102.866423 222.369478 
L 104.395889 212.504606 
L 105.925354 225.863897 
L 107.45482 220.696493 
L 108.984285 222.512677 
L 110.513751 221.607974 
L 112.043216 211.191376 
L 113.572682 223.105781 
L 115.102147 218.55453 
L 116.631613 226.525477 
L 118.161078 232.805165 
L 119.690544 215.780332 
L 121.220009 229.538775 
L 122.749475 229.39171 
L 124.27894 219.368129 
L 125.808406 217.817883 
L 127.337871 241.502579 
L 128.867337 218.228452 
L 130.396802 217.424872 
L 131.926268 217.83072 
L 133.455733 237.978006 
L 134.985199 214.826713 
L 136.514664 219.578034 
L 138.04413 228.575731 
L 139.573595 216.963872 
L 141.103061 197.326591 
L 142.632526 227.98078 
L 144.161992 240.272287 
L 145.691457 217.160691 
L 147.220923 220.902737 
L 148.750388 207.635687 
L 150.279854 210.466728 
L 151.809319 226.167985 
L 153.338785 210.684261 
L 154.86825 219.001678 
L 156.397716 210.658283 
L 157.927181 237.63766 
L 159.456647 222.601041 
L 160.986112 221.145177 
L 162.515578 221.715099 
L 165.574509 235.519368 
L 167.103974 224.053781 
L 168.63344 225.129136 
L 170.162905 224.735792 
L 171.692371 231.117274 
L 173.221836 211.513898 
L 174.751302 227.020493 
L 176.280767 236.214926 
L 177.810233 223.296759 
L 179.339698 212.15639 
L 180.869164 220.496911 
L 182.39863 222.895992 
L 183.928095 214.173682 
L 185.457561 223.961129 
L 186.987026 222.404293 
L 188.516492 240.375606 
L 190.045957 232.817469 
L 191.575423 235.855975 
L 193.104888 220.034269 
L 194.634354 225.473076 
L 196.163819 220.266752 
L 197.693285 226.045977 
L 199.22275 217.654187 
L 200.752216 219.181234 
L 202.281681 226.651917 
L 203.811147 238.625967 
L 205.340612 237.478308 
L 206.870078 214.692473 
L 208.399543 224.195953 
L 209.929009 234.938308 
L 211.458474 230.841571 
L 212.98794 230.670064 
L 214.517405 210.730082 
L 216.046871 223.918376 
L 217.576336 233.71602 
L 219.105802 214.971143 
L 220.635267 215.106876 
L 222.164733 234.588188 
L 223.694198 235.856208 
L 225.223664 239.583303 
L 226.753129 218.197032 
L 228.282595 213.05458 
L 229.81206 224.830751 
L 231.341526 215.364887 
L 232.870991 220.551136 
L 234.400457 230.399022 
L 235.929922 224.346752 
L 237.459388 228.514089 
L 238.988853 235.295445 
L 240.518319 207.683555 
L 242.047784 213.273233 
L 243.57725 235.558371 
L 245.106715 218.258258 
L 246.636181 211.190533 
L 248.165646 234.656387 
L 249.695112 225.335941 
L 251.224577 228.506295 
L 252.754043 220.245583 
L 254.283508 213.957269 
L 255.812974 225.44722 
L 257.342439 215.72421 
L 258.871905 200.418273 
L 260.40137 220.069722 
L 261.930836 219.21256 
L 263.460302 237.156668 
L 264.989767 221.499618 
L 266.519233 226.606124 
L 268.048698 228.391393 
L 269.578164 225.167729 
L 271.107629 215.320553 
L 272.637095 221.093204 
L 274.16656 229.872985 
L 275.696026 214.408123 
L 277.225491 225.391869 
L 278.754957 222.678553 
L 280.284422 228.74275 
L 281.813888 217.320804 
L 283.343353 224.35889 
L 284.872819 232.156444 
L 286.402284 224.130312 
L 287.93175 231.348819 
L 289.461215 236.097711 
L 290.990681 236.705798 
L 292.520146 228.125232 
L 294.049612 226.553763 
L 295.579077 212.929759 
L 297.108543 225.388496 
L 298.638008 213.654407 
L 300.167474 215.40328 
L 301.696939 225.945781 
L 303.226405 216.885189 
L 304.75587 221.331845 
L 306.285336 215.265906 
L 307.814801 209.950732 
L 309.344267 218.259135 
L 310.873732 212.614161 
L 312.403198 205.420777 
L 313.932663 227.038167 
L 315.462129 233.067765 
L 316.991594 227.495494 
L 318.52106 210.896247 
L 320.050525 230.586671 
L 321.579991 210.485428 
L 323.109456 215.21998 
L 324.638922 200.807363 
L 326.168387 222.570242 
L 327.697853 220.42824 
L 329.227318 230.2452 
L 330.756784 216.27547 
L 332.286249 238.700312 
L 333.815715 206.45784 
L 335.34518 207.579554 
L 336.874646 224.587312 
L 338.404111 221.73391 
L 339.933577 228.57734 
L 341.463042 221.429544 
L 342.992508 213.240382 
L 344.521974 222.95045 
L 346.051439 225.017968 
L 347.580905 218.533228 
L 349.11037 220.570235 
L 350.639836 218.385536 
L 352.169301 235.508518 
L 353.698767 227.223797 
L 355.228232 222.102513 
L 356.757698 242.116364 
L 358.287163 215.027943 
L 359.816629 214.456651 
L 361.346094 232.339927 
L 362.87556 220.273242 
L 364.405025 234.440207 
L 365.934491 213.149289 
L 367.463956 228.587769 
L 368.993422 225.118674 
L 370.522887 224.498533 
L 372.052353 226.440841 
L 373.581818 217.521623 
L 373.581818 217.521623 
" style="fill:none;stroke:#1f77b4;stroke-linecap:square;stroke-width:1.5;"/>
   </g>
   <g id="line2d_19">
    <path clip-path="url(#p18f1190cda)" d="M 69.218182 44.443636 
L 70.747647 68.007096 
L 72.277113 94.712296 
L 75.336044 153.216089 
L 76.865509 176.264168 
L 78.394975 190.728342 
L 79.92444 198.779758 
L 81.453906 203.313402 
L 82.983371 206.485654 
L 84.512837 208.830133 
L 86.042302 210.614015 
L 89.101233 212.862298 
L 90.630699 213.645875 
L 92.160164 213.962894 
L 93.68963 214.754775 
L 95.219095 215.141435 
L 98.278026 215.660554 
L 101.336958 215.649665 
L 102.866423 216.00435 
L 104.395889 216.17472 
L 105.925354 215.92555 
L 108.984285 216.10616 
L 110.513751 215.950574 
L 112.043216 216.165284 
L 113.572682 216.493897 
L 115.102147 216.491761 
L 118.161078 216.243091 
L 119.690544 216.226144 
L 121.220009 216.624669 
L 122.749475 215.746399 
L 124.27894 216.606935 
L 125.808406 216.120273 
L 127.337871 216.684531 
L 130.396802 216.486635 
L 131.926268 216.669181 
L 133.455733 216.627426 
L 134.985199 216.713782 
L 138.04413 216.591285 
L 141.103061 216.588356 
L 144.161992 216.636657 
L 145.691457 216.788083 
L 148.750388 216.763902 
L 151.809319 216.509446 
L 153.338785 216.79551 
L 154.86825 216.839562 
L 156.397716 216.408606 
L 157.927181 216.864741 
L 160.986112 216.81578 
L 162.515578 216.584129 
L 164.045043 216.85095 
L 168.63344 216.890592 
L 171.692371 216.707569 
L 173.221836 216.865174 
L 174.751302 216.888772 
L 176.280767 216.662591 
L 179.339698 216.875919 
L 180.869164 216.877073 
L 182.39863 216.632452 
L 183.928095 216.797374 
L 185.457561 216.604183 
L 188.516492 216.81096 
L 190.045957 216.542891 
L 193.104888 216.873195 
L 194.634354 216.669658 
L 196.163819 216.870993 
L 197.693285 216.639425 
L 199.22275 216.817783 
L 200.752216 216.647314 
L 202.281681 216.842008 
L 203.811147 216.924303 
L 205.340612 216.618639 
L 206.870078 216.832589 
L 208.399543 216.711047 
L 211.458474 216.924941 
L 214.517405 216.622234 
L 216.046871 216.667561 
L 217.576336 216.882925 
L 219.105802 216.963883 
L 220.635267 216.797213 
L 222.164733 216.881106 
L 223.694198 216.793197 
L 225.223664 216.571237 
L 226.753129 216.754355 
L 228.282595 216.538625 
L 229.81206 216.622256 
L 231.341526 216.929356 
L 232.870991 216.717548 
L 234.400457 216.203011 
L 235.929922 216.802716 
L 237.459388 216.669658 
L 240.518319 216.73034 
L 242.047784 216.93446 
L 243.57725 216.682145 
L 245.106715 216.882243 
L 246.636181 216.93775 
L 248.165646 216.384975 
L 249.695112 216.770692 
L 251.224577 216.388608 
L 252.754043 216.348007 
L 254.283508 216.597349 
L 255.812974 216.596883 
L 257.342439 216.821128 
L 260.40137 216.843201 
L 261.930836 216.972093 
L 263.460302 216.765438 
L 264.989767 216.266916 
L 268.048698 216.668188 
L 269.578164 216.794124 
L 271.107629 216.546585 
L 274.16656 216.704856 
L 277.225491 216.719462 
L 278.754957 216.909153 
L 281.813888 216.642282 
L 283.343353 216.970146 
L 284.872819 216.578676 
L 286.402284 216.329729 
L 287.93175 216.906207 
L 289.461215 216.797585 
L 290.990681 216.986949 
L 292.520146 216.515326 
L 297.108543 216.946387 
L 298.638008 216.427961 
L 300.167474 216.461345 
L 301.696939 216.288307 
L 303.226405 216.90547 
L 304.75587 216.962252 
L 306.285336 216.803504 
L 307.814801 216.948911 
L 309.344267 216.752413 
L 312.403198 216.53979 
L 313.932663 216.685707 
L 315.462129 216.579497 
L 316.991594 216.806139 
L 320.050525 216.946159 
L 321.579991 216.766881 
L 323.109456 216.904255 
L 324.638922 216.667373 
L 326.168387 216.915965 
L 329.227318 216.723711 
L 330.756784 216.889011 
L 332.286249 216.661515 
L 335.34518 216.866716 
L 336.874646 216.740736 
L 338.404111 216.978705 
L 339.933577 216.653449 
L 341.463042 216.761433 
L 342.992508 216.733863 
L 344.521974 216.883741 
L 346.051439 216.503266 
L 347.580905 216.845869 
L 350.639836 216.752757 
L 352.169301 216.892877 
L 353.698767 216.439067 
L 355.228232 216.53984 
L 356.757698 216.955945 
L 359.816629 216.950392 
L 361.346094 216.856337 
L 362.87556 216.473299 
L 364.405025 216.345716 
L 365.934491 216.767152 
L 367.463956 216.606396 
L 368.993422 216.992868 
L 370.522887 216.778968 
L 372.052353 216.297477 
L 373.581818 216.622744 
L 373.581818 216.622744 
" style="fill:none;stroke:#ff7f0e;stroke-linecap:square;stroke-width:1.5;"/>
   </g>
   <g id="patch_3">
    <path d="M 54 252 
L 54 34.56 
" style="fill:none;stroke:#000000;stroke-linecap:square;stroke-linejoin:miter;stroke-width:0.8;"/>
   </g>
   <g id="patch_4">
    <path d="M 388.8 252 
L 388.8 34.56 
" style="fill:none;stroke:#000000;stroke-linecap:square;stroke-linejoin:miter;stroke-width:0.8;"/>
   </g>
   <g id="patch_5">
    <path d="M 54 252 
L 388.8 252 
" style="fill:none;stroke:#000000;stroke-linecap:square;stroke-linejoin:miter;stroke-width:0.8;"/>
   </g>
   <g id="patch_6">
    <path d="M 54 34.56 
L 388.8 34.56 
" style="fill:none;stroke:#000000;stroke-linecap:square;stroke-linejoin:miter;stroke-width:0.8;"/>
   </g>
   <g id="legend_1">
    <g id="patch_7">
     <path d="M 324.359375 71.91625 
L 381.8 71.91625 
Q 383.8 71.91625 383.8 69.91625 
L 383.8 41.56 
Q 383.8 39.56 381.8 39.56 
L 324.359375 39.56 
Q 322.359375 39.56 322.359375 41.56 
L 322.359375 69.91625 
Q 322.359375 71.91625 324.359375 71.91625 
z
" style="fill:#ffffff;opacity:0.8;stroke:#cccccc;stroke-linejoin:miter;"/>
    </g>
    <g id="line2d_20">
     <path d="M 326.359375 47.658437 
L 346.359375 47.658437 
" style="fill:none;stroke:#1f77b4;stroke-linecap:square;stroke-width:1.5;"/>
    </g>
    <g id="line2d_21"/>
    <g id="text_20">
     <!-- Train -->
     <defs>
      <path d="M -0.296875 72.90625 
L 61.375 72.90625 
L 61.375 64.59375 
L 35.5 64.59375 
L 35.5 0 
L 25.59375 0 
L 25.59375 64.59375 
L -0.296875 64.59375 
z
" id="DejaVuSans-84"/>
      <path d="M 41.109375 46.296875 
Q 39.59375 47.171875 37.8125 47.578125 
Q 36.03125 48 33.890625 48 
Q 26.265625 48 22.1875 43.046875 
Q 18.109375 38.09375 18.109375 28.8125 
L 18.109375 0 
L 9.078125 0 
L 9.078125 54.6875 
L 18.109375 54.6875 
L 18.109375 46.1875 
Q 20.953125 51.171875 25.484375 53.578125 
Q 30.03125 56 36.53125 56 
Q 37.453125 56 38.578125 55.875 
Q 39.703125 55.765625 41.0625 55.515625 
z
" id="DejaVuSans-114"/>
      <path d="M 34.28125 27.484375 
Q 23.390625 27.484375 19.1875 25 
Q 14.984375 22.515625 14.984375 16.5 
Q 14.984375 11.71875 18.140625 8.90625 
Q 21.296875 6.109375 26.703125 6.109375 
Q 34.1875 6.109375 38.703125 11.40625 
Q 43.21875 16.703125 43.21875 25.484375 
L 43.21875 27.484375 
z
M 52.203125 31.203125 
L 52.203125 0 
L 43.21875 0 
L 43.21875 8.296875 
Q 40.140625 3.328125 35.546875 0.953125 
Q 30.953125 -1.421875 24.3125 -1.421875 
Q 15.921875 -1.421875 10.953125 3.296875 
Q 6 8.015625 6 15.921875 
Q 6 25.140625 12.171875 29.828125 
Q 18.359375 34.515625 30.609375 34.515625 
L 43.21875 34.515625 
L 43.21875 35.40625 
Q 43.21875 41.609375 39.140625 45 
Q 35.0625 48.390625 27.6875 48.390625 
Q 23 48.390625 18.546875 47.265625 
Q 14.109375 46.140625 10.015625 43.890625 
L 10.015625 52.203125 
Q 14.9375 54.109375 19.578125 55.046875 
Q 24.21875 56 28.609375 56 
Q 40.484375 56 46.34375 49.84375 
Q 52.203125 43.703125 52.203125 31.203125 
z
" id="DejaVuSans-97"/>
      <path d="M 9.421875 54.6875 
L 18.40625 54.6875 
L 18.40625 0 
L 9.421875 0 
z
M 9.421875 75.984375 
L 18.40625 75.984375 
L 18.40625 64.59375 
L 9.421875 64.59375 
z
" id="DejaVuSans-105"/>
      <path d="M 54.890625 33.015625 
L 54.890625 0 
L 45.90625 0 
L 45.90625 32.71875 
Q 45.90625 40.484375 42.875 44.328125 
Q 39.84375 48.1875 33.796875 48.1875 
Q 26.515625 48.1875 22.3125 43.546875 
Q 18.109375 38.921875 18.109375 30.90625 
L 18.109375 0 
L 9.078125 0 
L 9.078125 54.6875 
L 18.109375 54.6875 
L 18.109375 46.1875 
Q 21.34375 51.125 25.703125 53.5625 
Q 30.078125 56 35.796875 56 
Q 45.21875 56 50.046875 50.171875 
Q 54.890625 44.34375 54.890625 33.015625 
z
" id="DejaVuSans-110"/>
     </defs>
     <g transform="translate(354.359375 51.158437)scale(0.1 -0.1)">
      <use xlink:href="#DejaVuSans-84"/>
      <use x="60.865234" xlink:href="#DejaVuSans-114"/>
      <use x="101.978516" xlink:href="#DejaVuSans-97"/>
      <use x="163.257812" xlink:href="#DejaVuSans-105"/>
      <use x="191.041016" xlink:href="#DejaVuSans-110"/>
     </g>
    </g>
    <g id="line2d_22">
     <path d="M 326.359375 62.336562 
L 346.359375 62.336562 
" style="fill:none;stroke:#ff7f0e;stroke-linecap:square;stroke-width:1.5;"/>
    </g>
    <g id="line2d_23"/>
    <g id="text_21">
     <!-- Test -->
     <defs>
      <path d="M 56.203125 29.59375 
L 56.203125 25.203125 
L 14.890625 25.203125 
Q 15.484375 15.921875 20.484375 11.0625 
Q 25.484375 6.203125 34.421875 6.203125 
Q 39.59375 6.203125 44.453125 7.46875 
Q 49.3125 8.734375 54.109375 11.28125 
L 54.109375 2.78125 
Q 49.265625 0.734375 44.1875 -0.34375 
Q 39.109375 -1.421875 33.890625 -1.421875 
Q 20.796875 -1.421875 13.15625 6.1875 
Q 5.515625 13.8125 5.515625 26.8125 
Q 5.515625 40.234375 12.765625 48.109375 
Q 20.015625 56 32.328125 56 
Q 43.359375 56 49.78125 48.890625 
Q 56.203125 41.796875 56.203125 29.59375 
z
M 47.21875 32.234375 
Q 47.125 39.59375 43.09375 43.984375 
Q 39.0625 48.390625 32.421875 48.390625 
Q 24.90625 48.390625 20.390625 44.140625 
Q 15.875 39.890625 15.1875 32.171875 
z
" id="DejaVuSans-101"/>
      <path d="M 44.28125 53.078125 
L 44.28125 44.578125 
Q 40.484375 46.53125 36.375 47.5 
Q 32.28125 48.484375 27.875 48.484375 
Q 21.1875 48.484375 17.84375 46.4375 
Q 14.5 44.390625 14.5 40.28125 
Q 14.5 37.15625 16.890625 35.375 
Q 19.28125 33.59375 26.515625 31.984375 
L 29.59375 31.296875 
Q 39.15625 29.25 43.1875 25.515625 
Q 47.21875 21.78125 47.21875 15.09375 
Q 47.21875 7.46875 41.1875 3.015625 
Q 35.15625 -1.421875 24.609375 -1.421875 
Q 20.21875 -1.421875 15.453125 -0.5625 
Q 10.6875 0.296875 5.421875 2 
L 5.421875 11.28125 
Q 10.40625 8.6875 15.234375 7.390625 
Q 20.0625 6.109375 24.8125 6.109375 
Q 31.15625 6.109375 34.5625 8.28125 
Q 37.984375 10.453125 37.984375 14.40625 
Q 37.984375 18.0625 35.515625 20.015625 
Q 33.0625 21.96875 24.703125 23.78125 
L 21.578125 24.515625 
Q 13.234375 26.265625 9.515625 29.90625 
Q 5.8125 33.546875 5.8125 39.890625 
Q 5.8125 47.609375 11.28125 51.796875 
Q 16.75 56 26.8125 56 
Q 31.78125 56 36.171875 55.265625 
Q 40.578125 54.546875 44.28125 53.078125 
z
" id="DejaVuSans-115"/>
      <path d="M 18.3125 70.21875 
L 18.3125 54.6875 
L 36.8125 54.6875 
L 36.8125 47.703125 
L 18.3125 47.703125 
L 18.3125 18.015625 
Q 18.3125 11.328125 20.140625 9.421875 
Q 21.96875 7.515625 27.59375 7.515625 
L 36.8125 7.515625 
L 36.8125 0 
L 27.59375 0 
Q 17.1875 0 13.234375 3.875 
Q 9.28125 7.765625 9.28125 18.015625 
L 9.28125 47.703125 
L 2.6875 47.703125 
L 2.6875 54.6875 
L 9.28125 54.6875 
L 9.28125 70.21875 
z
" id="DejaVuSans-116"/>
     </defs>
     <g transform="translate(354.359375 65.836562)scale(0.1 -0.1)">
      <use xlink:href="#DejaVuSans-84"/>
      <use x="60.818359" xlink:href="#DejaVuSans-101"/>
      <use x="122.341797" xlink:href="#DejaVuSans-115"/>
      <use x="174.441406" xlink:href="#DejaVuSans-116"/>
     </g>
    </g>
   </g>
  </g>
 </g>
 <defs>
  <clipPath id="p18f1190cda">
   <rect height="217.44" width="334.8" x="54" y="34.56"/>
  </clipPath>
 </defs>
</svg>
